<svg width="28" height="28" viewBox="0 0 28 28" fill="none" xmlns="http://www.w3.org/2000/svg">
<path fill-rule="evenodd" clip-rule="evenodd" d="M28 14.3183C28 13.3255 27.9091 12.371 27.7403 11.4546H14.2857V16.8701H21.974C21.6429 18.6201 20.6364 20.1028 19.1234 21.0955V24.6083H23.7403C26.4416 22.171 28 18.5819 28 14.3183Z" fill="#4285F4"/>
<path fill-rule="evenodd" clip-rule="evenodd" d="M14.2857 28C18.1429 28 21.3766 26.7464 23.7403 24.6083L19.1234 21.0955C17.8442 21.9355 16.2078 22.4318 14.2857 22.4318C10.565 22.4318 7.4156 19.9691 6.29222 16.66H1.51949V20.2873C3.87014 24.8627 8.70132 28 14.2857 28Z" fill="#34A853"/>
<path fill-rule="evenodd" clip-rule="evenodd" d="M6.29222 16.66C6.00651 15.82 5.84416 14.9228 5.84416 14.0001C5.84416 13.0773 6.0065 12.1801 6.29222 11.3401V7.7128H1.51948C0.551949 9.6028 0 11.741 0 14.0001C0 16.2592 0.551955 18.3973 1.51949 20.2873L6.29222 16.66Z" fill="#FBBC05"/>
<path fill-rule="evenodd" clip-rule="evenodd" d="M14.2857 5.56818C16.3832 5.56818 18.2663 6.27454 19.7468 7.66182L23.8442 3.64636C21.3702 1.38727 18.1364 0 14.2857 0C8.70132 0 3.87014 3.13734 1.51948 7.7128L6.29222 11.3401C7.4156 8.03098 10.565 5.56818 14.2857 5.56818Z" fill="#EA4335"/>
</svg>
