<svg width="192" height="192" viewBox="0 0 192 192" fill="none" xmlns="http://www.w3.org/2000/svg">
<style>
    /* Default (Light) Mode */
    path { fill: #0F3C97; }
    /* Dark Mode */
    @media (prefers-color-scheme: dark) {
      path { fill: white; }
    }
</style>
<g clip-path="url(#clip0_13640_97711)">
<path d="M192 177.945C189.102 161.097 181.836 145.304 170.925 132.143C160.015 118.981 145.843 108.913 129.824 102.942C130.722 97.6341 131.175 92.2606 131.18 86.8772C131.163 72.582 128.004 58.4652 121.927 45.526C115.85 32.5868 107.003 21.1414 96.0126 12C85.0052 21.1488 76.1479 32.6097 70.07 45.5681C63.992 58.5266 60.8426 72.6646 60.8456 86.9776C60.8416 92.327 61.2866 97.6672 62.176 102.942C46.1666 108.928 32.0035 119.001 21.0954 132.16C10.1873 145.318 2.91435 161.103 0 177.945C10.8536 182.039 22.362 184.123 33.9621 184.095C56.6547 184.073 78.6178 176.077 96.0126 161.503C113.398 176.075 135.353 184.071 158.038 184.095C169.638 184.127 181.147 182.043 192 177.945ZM96.0126 22.6932C104.644 31.0194 111.498 41.0084 116.162 52.0571C120.825 63.1059 123.202 74.9851 123.147 86.9776C123.162 90.1718 123.003 93.3644 122.67 96.5413L98.3219 43.8285C97.0132 43.4274 95.6144 43.4274 94.3057 43.8285L69.606 97.7963C69.1311 94.2092 68.8796 90.596 68.8529 86.9776C68.7972 74.9827 71.1754 63.101 75.8437 52.0516C80.512 41.0021 87.3733 31.0146 96.0126 22.6932ZM106.204 97.3445C102.819 96.9735 99.4174 96.7808 96.0126 96.7672C90.3583 96.7882 84.7158 97.2836 79.1445 98.2481L92.7494 68.1266L106.204 97.3445ZM90.0384 156.132C78.9194 165.185 65.7734 171.412 51.7243 174.28C37.6751 177.147 23.1405 176.57 9.36279 172.598C12.8474 158.763 19.5753 145.956 28.9902 135.236C38.4051 124.516 50.2366 116.191 63.5063 110.949L52.3865 135.549C45.0318 151.337 41.0156 154.274 35.7945 156.132C35.1418 156.408 35.2674 159.621 35.9451 159.746H65.5145C66.1922 159.621 66.3177 156.408 65.64 156.132C58.4359 154.801 55.3484 150.785 61.6488 136.879L67.8991 123.073C72.9382 135.492 80.4735 146.744 90.0384 156.132ZM96.0628 150.785C85.16 140.222 77.1263 127.057 72.7185 112.531L74.9776 107.335C81.8486 105.624 88.9068 104.781 95.9874 104.825C100.739 104.834 105.482 105.228 110.17 106.004L116.671 120.061C111.983 131.634 104.939 142.106 95.9874 150.81L96.0628 150.785ZM158.038 176.062C137.625 176.069 117.835 169.029 102.012 156.132C109.819 148.427 116.292 139.478 121.164 129.65L126.636 141.523C131.029 151.137 128.494 155.027 121.415 155.831C120.737 155.831 120.737 159.571 121.415 159.696H157.812C158.49 159.571 158.49 155.956 157.812 155.831C151.788 154.877 148.324 151.94 142.425 139.389L129.573 111.477C142.589 116.794 154.173 125.096 163.39 135.713C172.608 146.33 179.201 158.965 182.637 172.598C174.641 174.902 166.36 176.068 158.038 176.062Z" fill="#0F3C97"/>
</g>
<defs>
<clipPath id="clip0_13640_97711">
<rect width="192" height="172.095" fill="white" transform="translate(0 12)"/>
</clipPath>
</defs>
</svg>
