<svg width="204" height="34" viewBox="0 0 204 34" fill="none" xmlns="http://www.w3.org/2000/svg">
<path d="M16.2401 28.52C9.79012 28.52 5.62012 23.78 5.62012 16.78C5.62012 9.77998 9.83012 4.97998 16.3101 4.97998C22.7901 4.97998 26.9301 9.70998 26.9301 16.72C26.9301 23.73 22.7501 28.53 16.2401 28.53V28.52ZM16.2801 8.58998C12.4001 8.58998 10.0701 11.78 10.0701 16.74C10.0701 21.7 12.4001 24.9 16.2801 24.9C20.1601 24.9 22.5301 21.71 22.5301 16.74C22.5301 11.77 20.1601 8.58998 16.2801 8.58998Z" fill="#00AE99"/>
<path d="M40.5797 28.09L40.2197 25.85C38.7397 27.26 37.0296 28.42 34.9296 28.42C31.9396 28.42 30.3896 26.61 30.3896 23.62V12.21H34.3396V22.6C34.3396 23.98 34.9296 24.9 36.3496 24.9C37.5996 24.9 38.8496 24.11 39.9996 22.93V12.21H43.9496V28.09H40.5996H40.5797Z" fill="#00AE99"/>
<path d="M51.8904 18.9901V28.1001H47.9404V12.2201H51.2904L51.7804 15.4101C52.8304 13.5701 54.4104 12.0201 56.8804 11.8901L57.5004 15.8001C55.0304 15.9601 53.0004 17.2801 51.8804 18.9901H51.8904Z" fill="#00AE99"/>
<path d="M68.2398 5.27002H70.5698L79.4498 27.83L77.2098 28.32L74.3198 20.76H64.4198L61.6298 28.09H59.2998L68.2398 5.27002ZM65.2098 18.76H73.5298L69.3498 7.91002L65.2098 18.76Z" fill="#1D4697"/>
<path d="M87.8 28.3902C85.73 28.3902 83.56 27.7302 82.21 26.9802L82.57 24.8802C84.02 25.8002 85.92 26.5602 88 26.5602C90.08 26.5602 91.52 25.6402 91.52 24.0602C91.52 22.4802 90.6 21.8202 87.51 21.0002C84.06 20.1102 82.58 18.9902 82.58 16.4302C82.58 14.0002 84.65 12.2202 87.87 12.2202C89.71 12.2202 91.32 12.6502 92.7 13.2702L92.34 15.3402C90.93 14.5802 89.35 14.1202 87.8 14.1202C85.66 14.1202 84.64 15.0402 84.64 16.3202C84.64 17.6002 85.49 18.2602 88.13 18.9502C91.81 19.9402 93.59 21.1202 93.59 23.8802C93.59 26.6402 91.39 28.3802 87.8 28.3802V28.3902Z" fill="#1D4697"/>
<path d="M103.75 28.42C99.77 28.42 96.71 25.46 96.71 20.33C96.71 15.2 99.87 12.21 103.88 12.21C105.98 12.21 107.66 12.9 108.88 13.79L108.52 15.96C107.07 14.74 105.63 14.09 103.82 14.09C100.99 14.09 98.92 16.33 98.92 20.31C98.92 24.29 101.02 26.52 103.95 26.52C105.59 26.52 107.14 26.03 108.72 24.68L109.02 26.69C107.57 27.81 105.9 28.43 103.76 28.43L103.75 28.42Z" fill="#1D4697"/>
<path d="M118.72 28.42C114.64 28.42 111.72 25.66 111.72 20.3C111.72 15.3 114.55 12.21 118.4 12.21C122.61 12.21 124.71 15.7 124.71 20V20.46H113.89C113.96 24.31 115.73 26.54 118.85 26.54C120.92 26.54 122.73 25.62 124.34 24.24L124.67 26.21C123.12 27.53 121.12 28.41 118.72 28.41V28.42ZM113.95 18.76H122.47C122.27 15.97 120.89 13.96 118.36 13.96C116.09 13.96 114.38 15.64 113.95 18.76Z" fill="#1D4697"/>
<path d="M138.91 28.0902V17.3702C138.91 15.3602 137.99 14.1502 136.02 14.1502C134.38 14.1502 132.7 15.1702 130.99 16.8502V28.1002H128.82V12.5502H130.5L130.86 14.8502C132.57 13.3402 134.35 12.2202 136.45 12.2202C139.54 12.2202 141.09 14.0002 141.09 16.9902V28.1002H138.92L138.91 28.0902Z" fill="#1D4697"/>
<path d="M150.55 28.3902C148.48 28.3902 146.31 27.7302 144.96 26.9802L145.32 24.8802C146.77 25.8002 148.67 26.5602 150.74 26.5602C152.81 26.5602 154.26 25.6402 154.26 24.0602C154.26 22.4802 153.34 21.8202 150.25 21.0002C146.8 20.1102 145.32 18.9902 145.32 16.4302C145.32 14.0002 147.39 12.2202 150.61 12.2202C152.45 12.2202 154.06 12.6502 155.44 13.2702L155.08 15.3402C153.67 14.5802 152.09 14.1202 150.54 14.1202C148.4 14.1202 147.38 15.0402 147.38 16.3202C147.38 17.6002 148.23 18.2602 150.87 18.9502C154.55 19.9402 156.33 21.1202 156.33 23.8802C156.33 26.6402 154.13 28.3802 150.54 28.3802L150.55 28.3902Z" fill="#1D4697"/>
<path d="M161.73 8.82016C160.87 8.82016 160.15 8.10016 160.15 7.24016C160.15 6.38016 160.87 5.66016 161.73 5.66016C162.59 5.66016 163.27 6.38016 163.27 7.24016C163.27 8.10016 162.58 8.82016 161.73 8.82016ZM160.65 28.0902V12.5402H162.79V28.0902H160.65Z" fill="#1D4697"/>
<path d="M174.13 28.42C170.15 28.42 167.16 25.46 167.16 20.33C167.16 15.2 170.22 12.21 174.13 12.21C178.04 12.21 181.2 15.17 181.2 20.33C181.2 25.49 178.11 28.42 174.13 28.42ZM174.13 14.05C171.24 14.05 169.36 16.42 169.36 20.33C169.36 24.24 171.3 26.58 174.13 26.58C176.96 26.58 178.96 24.21 178.96 20.33C178.96 16.45 177.05 14.05 174.13 14.05Z" fill="#1D4697"/>
<path d="M195.41 28.0902V17.3702C195.41 15.3602 194.49 14.1502 192.52 14.1502C190.88 14.1502 189.2 15.1702 187.49 16.8502V28.1002H185.32V12.5502H187L187.36 14.8502C189.07 13.3402 190.85 12.2202 192.95 12.2202C196.04 12.2202 197.59 14.0002 197.59 16.9902V28.1002H195.42L195.41 28.0902Z" fill="#1D4697"/>
</svg>
