<svg width="174" height="44" viewBox="0 0 174 44" fill="none" xmlns="http://www.w3.org/2000/svg">
<path d="M15.6274 20.3564C15.1661 20.4718 14.7047 20.6448 14.2434 20.8178C14.0704 19.6068 13.9551 18.3958 13.9551 17.1848C13.9551 10.3224 17.1268 4.09435 22.0285 0V2.47968C18.1648 6.17036 15.8004 11.4181 15.8004 17.1848C15.8004 18.0498 15.8581 18.8571 15.9734 19.6644L15.6274 20.3564ZM36.2145 37.5989C31.3705 37.5989 26.8725 35.8688 23.3548 33.0432C22.8935 32.6395 22.4321 32.2358 21.9708 31.8322C19.4911 29.4101 17.6458 26.4115 16.6078 23.0668L15.5121 25.4888C16.6654 28.3721 18.3954 30.9095 20.5868 33.0432C21.0481 33.5045 21.5094 33.9082 21.9708 34.3118C25.8345 37.5412 30.7938 39.4442 36.2145 39.4442C38.9249 39.4442 41.5775 38.9829 43.9996 38.0602L41.8659 36.7915C40.0782 37.3105 38.1752 37.5989 36.2145 37.5989Z" fill="#B40F87"/>
<path d="M20.6448 33.0432C21.1061 33.5045 21.5674 33.9082 22.0288 34.3118C18.1651 37.5412 13.2057 39.4442 7.78504 39.4442C5.07469 39.4442 2.42201 38.9829 0 38.0602L2.13368 36.8492C3.92135 37.3682 5.82436 37.6565 7.78504 37.6565C12.6291 37.5989 17.1271 35.8688 20.6448 33.0432ZM30.0445 17.1848C30.0445 10.3224 26.8728 4.09435 21.9711 0V2.47968C25.8348 6.17036 28.1991 11.4181 28.1991 17.1848C28.1991 17.9344 28.1415 18.6841 28.0838 19.3761C27.8531 21.2791 27.3918 23.0668 26.6998 24.7391C25.6041 27.3918 23.9895 29.8138 21.9711 31.7745C22.4324 32.1782 22.8938 32.6395 23.3551 32.9855C25.1428 31.2555 26.6421 29.1795 27.7378 26.9305C28.6605 25.0275 29.3525 22.9514 29.6985 20.8178C29.9292 19.6644 30.0445 18.3958 30.0445 17.1848Z" fill="#00D5B5"/>
<path d="M43.9999 38.0603L41.8662 36.7917C40.2515 30.3906 35.6958 25.2006 29.6985 22.7786L32.6395 29.1796C33.9658 32.063 34.7732 32.755 36.1572 32.928C36.3302 32.9856 36.3302 33.793 36.1572 33.793H27.7955C27.6225 33.7353 27.6225 32.928 27.7955 32.928C29.4101 32.755 29.9868 31.8323 29.0065 29.641L27.7378 26.9306C28.6605 25.0276 29.3525 22.9516 29.6985 20.8179C37.1375 23.5859 42.6735 30.1023 43.9999 38.0603ZM28.0838 19.3762C27.8531 21.2793 27.3918 23.0669 26.6998 24.7393L25.2005 21.5099C24.1624 21.3369 23.0668 21.2216 21.9711 21.2216C20.2988 21.2216 18.7418 21.3946 17.1847 21.7983L16.6657 23.0093L15.5701 25.4313L14.1284 28.603C12.6867 31.7746 13.3787 32.6973 15.0511 33.0433C15.2241 33.101 15.1664 33.8506 14.9934 33.8506H8.18871C8.01571 33.793 8.01571 33.101 8.13104 33.0433C9.34205 32.6396 10.2647 31.9476 11.9371 28.3146L14.5321 22.6633C8.41937 25.0276 3.74835 30.333 2.13368 36.7917L0 38.0027C1.32634 30.0446 6.92003 23.5283 14.2437 20.8179C14.7051 20.6449 15.1664 20.4719 15.6277 20.3566L15.9161 19.6646L21.5674 7.26619C21.7404 7.15085 22.3171 7.15085 22.4901 7.26619L28.0838 19.3762ZM24.3354 19.5492L21.2791 12.8599L18.1651 19.7799C19.4338 19.5492 20.7024 19.4339 22.0288 19.4339C22.7784 19.4339 23.5858 19.4916 24.3354 19.5492Z" fill="#0F3C97"/>
<path d="M68.4307 28.2886L62.8854 13.0332H60.594L55.3603 26.5453C54.398 28.9946 53.6959 29.9017 52 30.3198V31.0218H58.1171V30.3198C55.8533 29.9806 55.5141 29.3061 56.4528 26.8056L57.3362 24.4629H63.0393L64.392 28.3951C64.8614 29.669 64.4197 30.1896 61.998 30.3198V31.0218H71.2152V30.3198C69.3181 30.0042 68.9237 29.6138 68.4307 28.2886ZM57.6518 23.6268L60.2035 16.7524H60.3849L62.7553 23.6268H57.6518Z" fill="#0F3C97"/>
<path d="M77.9322 23.2892C76.1377 22.8475 75.0965 22.4018 75.0965 21.3369C75.0965 20.272 75.8774 19.5937 76.9699 19.5937C78.4016 19.5937 79.4191 20.6625 80.7207 22.6384H81.4503V18.7852H80.7719L80.1212 19.5937C79.4191 19.1519 78.299 18.7852 77.1789 18.7852C74.3156 18.7852 72.387 20.3746 72.387 22.7962C72.387 24.6972 73.4795 25.557 76.2127 26.3379C78.7132 27.0676 79.5177 27.5882 79.5177 28.7319C79.5177 29.6943 78.8394 30.3963 77.5142 30.3963C75.9248 30.3963 74.4931 29.2525 73.089 26.9059H72.3594V31.2285H73.0614L73.8423 30.345C74.5444 30.7867 76.3152 31.2285 77.2775 31.2285C80.2198 31.2285 82.1444 29.434 82.1444 27.0873C82.1484 24.9575 80.693 23.9952 77.9322 23.2892Z" fill="#0F3C97"/>
<path d="M91.2349 29.8743C88.6555 29.8743 87.5117 27.6341 87.5117 24.822C87.5117 21.4104 88.6318 19.5094 90.3475 19.5094C91.2349 19.5094 91.858 19.9275 92.1183 20.3692C91.7279 20.6019 91.2585 21.229 91.2585 21.931C91.2585 22.8934 91.9093 23.6743 93.2108 23.6743C94.3546 23.6743 95.0053 22.8658 95.0053 21.722C95.0053 20.4205 93.7038 18.7285 90.241 18.7285C86.5691 18.7285 83.8359 21.2014 83.8359 25.1848C83.8359 28.908 86.1511 31.2507 89.9531 31.2507C92.4772 31.2507 94.0667 30.107 95.238 28.3085L94.745 27.918C93.8103 29.1486 92.5877 29.8743 91.2349 29.8743Z" fill="#0F3C97"/>
<path d="M102.764 18.7324C99.2222 18.7324 96.6191 21.2053 96.6191 25.1611C96.6191 28.9868 98.9619 31.2546 102.764 31.2546C105.339 31.2546 106.956 30.0044 108.1 28.1822L107.58 27.7918C106.59 29.1446 105.497 29.9255 104.038 29.9255C101.537 29.9255 100.263 28.0521 100.263 25.0823V25.0547V24.7667H108.1C108.285 21.3631 106.436 18.7324 102.764 18.7324ZM104.562 23.9937L100.291 24.0213C100.421 21.1304 101.174 19.5449 102.582 19.5449C104.196 19.5409 104.846 21.3867 104.562 23.9937Z" fill="#0F3C97"/>
<path d="M122.081 29.4332V22.6377C122.081 20.1885 121.067 18.8633 118.906 18.8633C117.214 18.8633 115.573 19.8532 114.351 21.2336V18.9422L109.145 19.1749V19.8256C110.627 19.8532 110.939 20.3186 110.939 21.0995V29.4293C110.939 30.1076 110.627 30.3403 109.145 30.3679V31.0187H115.81V30.3679C114.796 30.3403 114.406 30.1076 114.406 29.4293V21.9554C115.108 21.2257 115.865 20.7327 116.8 20.7327C118.101 20.7327 118.622 21.5136 118.622 23.1031V29.4293C118.622 30.1076 118.232 30.3403 117.19 30.3679V31.0187H123.879V30.3679C122.365 30.3443 122.081 30.1116 122.081 29.4332Z" fill="#0F3C97"/>
<path d="M131.01 23.2892C129.216 22.8475 128.171 22.4018 128.171 21.3369C128.171 20.272 128.952 19.5937 130.044 19.5937C131.476 19.5937 132.493 20.6625 133.795 22.6384H134.525V18.7852H133.846L133.195 19.5937C132.493 19.1519 131.373 18.7852 130.253 18.7852C127.39 18.7852 125.461 20.3746 125.461 22.7962C125.461 24.6972 126.554 25.557 129.287 26.3379C131.787 27.0676 132.592 27.5882 132.592 28.7319C132.592 29.6943 131.914 30.3963 130.588 30.3963C128.999 30.3963 127.567 29.2525 126.163 26.9059H125.434V31.2285H126.136L126.917 30.345C127.619 30.7867 129.389 31.2285 130.352 31.2285C133.294 31.2285 135.219 29.434 135.219 27.0873C135.227 24.9575 133.767 23.9952 131.01 23.2892Z" fill="#0F3C97"/>
<path d="M142.096 29.4324V18.9414L136.76 19.1741V19.8249C138.243 19.8525 138.633 20.3179 138.633 21.0988V29.4285C138.633 30.1069 138.243 30.3396 136.76 30.3672V31.0179H143.894V30.3672C142.384 30.3435 142.096 30.1108 142.096 29.4324Z" fill="#0F3C97"/>
<path d="M150.947 18.7324C147.145 18.7324 144.648 21.2053 144.648 25.031C144.648 28.8843 146.991 31.2546 150.947 31.2546C154.698 31.2546 157.222 28.7817 157.222 24.9284C157.222 21.1028 154.828 18.7324 150.947 18.7324ZM151.05 30.45C149.176 30.45 148.344 28.6555 148.344 24.9837C148.344 21.3118 148.967 19.5409 150.817 19.5409C152.667 19.5409 153.499 21.3118 153.499 24.9837C153.499 28.6516 152.848 30.45 151.05 30.45Z" fill="#0F3C97"/>
<path d="M171.329 29.4332V22.6377C171.329 20.1885 170.315 18.8633 168.154 18.8633C166.462 18.8633 164.821 19.8532 163.599 21.2336V18.9422L158.393 19.1749V19.8256C159.876 19.8532 160.187 20.3186 160.187 21.0995V29.4293C160.187 30.1076 159.876 30.3403 158.393 30.3679V31.0187H165.058V30.3679C164.044 30.3403 163.654 30.1076 163.654 29.4293V21.9554C164.356 21.2257 165.113 20.7327 166.048 20.7327C167.349 20.7327 167.87 21.5136 167.87 23.1031V29.4293C167.87 30.1076 167.48 30.3403 166.438 30.3679V31.0187H173.127V30.3679C171.617 30.3443 171.329 30.1116 171.329 29.4332Z" fill="#0F3C97"/>
<path d="M140.303 16.8873C141.447 16.8873 142.374 15.9603 142.374 14.8167C142.374 13.6731 141.447 12.7461 140.303 12.7461C139.159 12.7461 138.232 13.6731 138.232 14.8167C138.232 15.9603 139.159 16.8873 140.303 16.8873Z" fill="#0F3C97"/>
</svg>
